name rise38.3101peak57.3503fall81.6963.mot
datacolumns 19
datarows 36
range 6.76665400000000 6.82498200000000
endheader
time	ground_force1_vx	ground_force1_vy	ground_force1_vz	ground_force1_px	ground_force1_py	ground_force1_pz	ground_force2_vx	ground_force2_vy	ground_force2_vz	ground_force2_px	ground_force2_py	ground_force2_pz	ground_torque1_x	ground_torque1_y	ground_torque1_z	ground_torque2_x	ground_torque2_y	ground_torque2_z	
6.76665400000000	4.55215800000000	709.93584999999996	45.13312800000000	0.22452100000000	0.00000000000000	0.13117800000000	0.00000000000000	0.00000000000000	0.00000000000000	0.00000000000000	0.00000000000000	0.00000000000000	0.00000000000000	19.94135100000000	0.00000000000000	0.00000000000000	0.00000000000000	0.00000000000000	
6.76831400000000	4.13919900000000	710.52841799999999	45.16488700000000	0.22358800000000	0.00000000000000	0.13122600000000	0.00000000000000	0.00000000000000	0.00000000000000	0.00000000000000	0.00000000000000	0.00000000000000	0.00000000000000	20.01501100000000	0.00000000000000	0.00000000000000	0.00000000000000	0.00000000000000	
6.76998000000000	3.71187100000000	711.10880799999995	45.19546300000000	0.22262300000000	0.00000000000000	0.13127600000000	0.00000000000000	0.00000000000000	0.00000000000000	0.00000000000000	0.00000000000000	0.00000000000000	0.00000000000000	20.09076900000000	0.00000000000000	0.00000000000000	0.00000000000000	0.00000000000000	
6.77164800000000	3.27004700000000	711.67716099999996	45.22480700000000	0.22162700000000	0.00000000000000	0.13132600000000	0.00000000000000	0.00000000000000	0.00000000000000	0.00000000000000	0.00000000000000	0.00000000000000	0.00000000000000	20.16865100000000	0.00000000000000	0.00000000000000	0.00000000000000	0.00000000000000	
6.77330800000000	2.81364500000000	712.23375499999997	45.25288600000000	0.22059900000000	0.00000000000000	0.13137600000000	0.00000000000000	0.00000000000000	0.00000000000000	0.00000000000000	0.00000000000000	0.00000000000000	0.00000000000000	20.24868700000000	0.00000000000000	0.00000000000000	0.00000000000000	0.00000000000000	
6.77497800000000	2.34262600000000	712.77900399999999	45.27967800000000	0.21954000000000	0.00000000000000	0.13142800000000	0.00000000000000	0.00000000000000	0.00000000000000	0.00000000000000	0.00000000000000	0.00000000000000	0.00000000000000	20.33090900000000	0.00000000000000	0.00000000000000	0.00000000000000	0.00000000000000	
6.77664900000000	1.85699500000000	713.31345899999997	45.30517400000000	0.21845200000000	0.00000000000000	0.13148000000000	0.00000000000000	0.00000000000000	0.00000000000000	0.00000000000000	0.00000000000000	0.00000000000000	0.00000000000000	20.41535000000000	0.00000000000000	0.00000000000000	0.00000000000000	0.00000000000000	
6.77831000000000	1.35680100000000	713.83780000000002	45.32938100000000	0.21733400000000	0.00000000000000	0.13153300000000	0.00000000000000	0.00000000000000	0.00000000000000	0.00000000000000	0.00000000000000	0.00000000000000	0.00000000000000	20.50204600000000	0.00000000000000	0.00000000000000	0.00000000000000	0.00000000000000	
6.77998300000000	0.84213600000000	714.35283900000002	45.35231500000000	0.21618900000000	0.00000000000000	0.13158700000000	0.00000000000000	0.00000000000000	0.00000000000000	0.00000000000000	0.00000000000000	0.00000000000000	0.00000000000000	20.59103300000000	0.00000000000000	0.00000000000000	0.00000000000000	0.00000000000000	
6.78165000000000	0.31313300000000	714.85951499999999	45.37400800000000	0.21501800000000	0.00000000000000	0.13164100000000	0.00000000000000	0.00000000000000	0.00000000000000	0.00000000000000	0.00000000000000	0.00000000000000	0.00000000000000	20.68234500000000	0.00000000000000	0.00000000000000	0.00000000000000	0.00000000000000	
6.78331500000000	-0.23003400000000	715.35888699999998	45.39450200000000	0.21382100000000	0.00000000000000	0.13169600000000	0.00000000000000	0.00000000000000	0.00000000000000	0.00000000000000	0.00000000000000	0.00000000000000	0.00000000000000	20.77601800000000	0.00000000000000	0.00000000000000	0.00000000000000	0.00000000000000	
6.78497600000000	-0.78715000000000	715.85213399999998	45.41385200000000	0.21260100000000	0.00000000000000	0.13175100000000	0.00000000000000	0.00000000000000	0.00000000000000	0.00000000000000	0.00000000000000	0.00000000000000	0.00000000000000	20.87208400000000	0.00000000000000	0.00000000000000	0.00000000000000	0.00000000000000	
6.78665000000000	-1.35796200000000	716.34054800000001	45.43212500000000	0.21135900000000	0.00000000000000	0.13180700000000	0.00000000000000	0.00000000000000	0.00000000000000	0.00000000000000	0.00000000000000	0.00000000000000	0.00000000000000	20.97057500000000	0.00000000000000	0.00000000000000	0.00000000000000	0.00000000000000	
6.78830900000000	-1.94217900000000	716.82552999999996	45.44939800000000	0.21009600000000	0.00000000000000	0.13186400000000	0.00000000000000	0.00000000000000	0.00000000000000	0.00000000000000	0.00000000000000	0.00000000000000	0.00000000000000	21.07151900000000	0.00000000000000	0.00000000000000	0.00000000000000	0.00000000000000	
6.78997500000000	-2.53947400000000	717.30858400000000	45.46576400000000	0.20881500000000	0.00000000000000	0.13192000000000	0.00000000000000	0.00000000000000	0.00000000000000	0.00000000000000	0.00000000000000	0.00000000000000	0.00000000000000	21.17493900000000	0.00000000000000	0.00000000000000	0.00000000000000	0.00000000000000	
6.79164600000000	-3.14948600000000	717.79131099999995	45.48132200000000	0.20751800000000	0.00000000000000	0.13197700000000	0.00000000000000	0.00000000000000	0.00000000000000	0.00000000000000	0.00000000000000	0.00000000000000	0.00000000000000	21.28085800000000	0.00000000000000	0.00000000000000	0.00000000000000	0.00000000000000	
6.79331100000000	-3.77182100000000	718.27540299999998	45.49618700000000	0.20620500000000	0.00000000000000	0.13203500000000	0.00000000000000	0.00000000000000	0.00000000000000	0.00000000000000	0.00000000000000	0.00000000000000	0.00000000000000	21.38929000000000	0.00000000000000	0.00000000000000	0.00000000000000	0.00000000000000	
6.79498200000000	-4.40605400000000	718.76263700000004	45.51048400000000	0.20488000000000	0.00000000000000	0.13209200000000	0.00000000000000	0.00000000000000	0.00000000000000	0.00000000000000	0.00000000000000	0.00000000000000	0.00000000000000	21.50024600000000	0.00000000000000	0.00000000000000	0.00000000000000	0.00000000000000	
6.79664900000000	-5.05172900000000	719.25486400000000	45.52434900000000	0.20354500000000	0.00000000000000	0.13214900000000	0.00000000000000	0.00000000000000	0.00000000000000	0.00000000000000	0.00000000000000	0.00000000000000	0.00000000000000	21.61373100000000	0.00000000000000	0.00000000000000	0.00000000000000	0.00000000000000	
6.79831500000000	-5.70836600000000	719.75400900000000	45.53792900000000	0.20220100000000	0.00000000000000	0.13220700000000	0.00000000000000	0.00000000000000	0.00000000000000	0.00000000000000	0.00000000000000	0.00000000000000	0.00000000000000	21.72974300000000	0.00000000000000	0.00000000000000	0.00000000000000	0.00000000000000	
6.79998300000000	-6.37545800000000	720.26205500000003	45.55138400000000	0.20085100000000	0.00000000000000	0.13226400000000	0.00000000000000	0.00000000000000	0.00000000000000	0.00000000000000	0.00000000000000	0.00000000000000	0.00000000000000	21.84827400000000	0.00000000000000	0.00000000000000	0.00000000000000	0.00000000000000	
6.80164500000000	-7.05247300000000	720.78104199999996	45.56488300000000	0.19949700000000	0.00000000000000	0.13232000000000	0.00000000000000	0.00000000000000	0.00000000000000	0.00000000000000	0.00000000000000	0.00000000000000	0.00000000000000	21.96930800000000	0.00000000000000	0.00000000000000	0.00000000000000	0.00000000000000	
6.80331000000000	-7.73886000000000	721.31305299999997	45.57860700000000	0.19814000000000	0.00000000000000	0.13237700000000	0.00000000000000	0.00000000000000	0.00000000000000	0.00000000000000	0.00000000000000	0.00000000000000	0.00000000000000	22.09282300000000	0.00000000000000	0.00000000000000	0.00000000000000	0.00000000000000	
6.80498200000000	-8.43404800000000	721.86020799999994	45.59274900000000	0.19678400000000	0.00000000000000	0.13243300000000	0.00000000000000	0.00000000000000	0.00000000000000	0.00000000000000	0.00000000000000	0.00000000000000	0.00000000000000	22.21878700000000	0.00000000000000	0.00000000000000	0.00000000000000	0.00000000000000	
6.80665000000000	-9.13744800000000	722.42465600000003	45.60751300000000	0.19543000000000	0.00000000000000	0.13248800000000	0.00000000000000	0.00000000000000	0.00000000000000	0.00000000000000	0.00000000000000	0.00000000000000	0.00000000000000	22.34716100000000	0.00000000000000	0.00000000000000	0.00000000000000	0.00000000000000	
6.80831300000000	-9.84845700000000	723.00856299999998	45.62311100000000	0.19408000000000	0.00000000000000	0.13254200000000	0.00000000000000	0.00000000000000	0.00000000000000	0.00000000000000	0.00000000000000	0.00000000000000	0.00000000000000	22.47789700000000	0.00000000000000	0.00000000000000	0.00000000000000	0.00000000000000	
6.80998200000000	-10.56645800000000	723.61410500000000	45.63976800000000	0.19273600000000	0.00000000000000	0.13259600000000	0.00000000000000	0.00000000000000	0.00000000000000	0.00000000000000	0.00000000000000	0.00000000000000	0.00000000000000	22.61094000000000	0.00000000000000	0.00000000000000	0.00000000000000	0.00000000000000	
6.81164400000000	-11.29082200000000	724.24345700000003	45.65772000000000	0.19140000000000	0.00000000000000	0.13264900000000	0.00000000000000	0.00000000000000	0.00000000000000	0.00000000000000	0.00000000000000	0.00000000000000	0.00000000000000	22.74622200000000	0.00000000000000	0.00000000000000	0.00000000000000	0.00000000000000	
6.81331200000000	-12.02091400000000	724.89878499999998	45.67721000000000	0.19007300000000	0.00000000000000	0.13270100000000	0.00000000000000	0.00000000000000	0.00000000000000	0.00000000000000	0.00000000000000	0.00000000000000	0.00000000000000	22.88367100000000	0.00000000000000	0.00000000000000	0.00000000000000	0.00000000000000	
6.81497500000000	-12.75608800000000	725.58223399999997	45.69849400000000	0.18875900000000	0.00000000000000	0.13275100000000	0.00000000000000	0.00000000000000	0.00000000000000	0.00000000000000	0.00000000000000	0.00000000000000	0.00000000000000	23.02320200000000	0.00000000000000	0.00000000000000	0.00000000000000	0.00000000000000	
6.81664800000000	-13.49569500000000	726.29591800000003	45.72183300000000	0.18745800000000	0.00000000000000	0.13280100000000	0.00000000000000	0.00000000000000	0.00000000000000	0.00000000000000	0.00000000000000	0.00000000000000	0.00000000000000	23.16472300000000	0.00000000000000	0.00000000000000	0.00000000000000	0.00000000000000	
6.81831600000000	-14.23908300000000	727.04191300000002	45.74750200000000	0.18617100000000	0.00000000000000	0.13284900000000	0.00000000000000	0.00000000000000	0.00000000000000	0.00000000000000	0.00000000000000	0.00000000000000	0.00000000000000	23.30813200000000	0.00000000000000	0.00000000000000	0.00000000000000	0.00000000000000	
6.81998200000000	-14.98559600000000	727.82224399999996	45.77577900000000	0.18490000000000	0.00000000000000	0.13289500000000	0.00000000000000	0.00000000000000	0.00000000000000	0.00000000000000	0.00000000000000	0.00000000000000	0.00000000000000	23.45331800000000	0.00000000000000	0.00000000000000	0.00000000000000	0.00000000000000	
6.82164600000000	-15.73458100000000	728.63887599999998	45.80695200000000	0.18364700000000	0.00000000000000	0.13294000000000	0.00000000000000	0.00000000000000	0.00000000000000	0.00000000000000	0.00000000000000	0.00000000000000	0.00000000000000	23.60016300000000	0.00000000000000	0.00000000000000	0.00000000000000	0.00000000000000	
6.82331600000000	-16.48538600000000	729.49370299999998	45.84131700000000	0.18241200000000	0.00000000000000	0.13298400000000	0.00000000000000	0.00000000000000	0.00000000000000	0.00000000000000	0.00000000000000	0.00000000000000	0.00000000000000	23.74853700000000	0.00000000000000	0.00000000000000	0.00000000000000	0.00000000000000	
6.82498200000000	-17.23736200000000	730.38854200000003	45.87917300000000	0.18119700000000	0.00000000000000	0.13302600000000	0.00000000000000	0.00000000000000	0.00000000000000	0.00000000000000	0.00000000000000	0.00000000000000	0.00000000000000	23.89830500000000	0.00000000000000	0.00000000000000	0.00000000000000	0.00000000000000	
